#!OML:ASF F:\VICON\USERDATA\INSTALL\rory3\rory3.ASF
:FULLY-SPECIFIED
:DEGREES
397
root 0.67423 17.4642 45.0748 -0.910573 1.07208 3.30129
lowerback 9.57676 -2.05244 -4.97201
upperback 0.590843 -3.19467 1.46681
thorax -4.39608 -1.47194 4.74827
lowerneck -15.6432 -2.28382 -3.58098
upperneck 21.1629 -2.49899 0.968846
head 9.30861 -1.35212 0.615623
rclavicle 2.23633e-015 1.59028e-015
rhumerus -37.3854 -25.1989 -73.1979
rradius 21.1498
rwrist 8.85033
rhand -18.488 24.3333
rfingers 7.12502
rthumb 7.79939 -5.50285
lclavicle 2.23633e-015 1.59028e-015
lhumerus -18.1741 -5.4302 79.6491
lradius 34.8763
lwrist 9.51903
lhand -31.8879 18.3665
lfingers 7.12502
lthumb -5.14046 48.2842
rfemur -30.9703 3.96523 17.1032
rtibia 24.4022
rfoot -7.06391 -9.1882
rtoes -6.89365
lfemur 17.4151 -3.48417 -27.5824
ltibia 14.724
lfoot -16.3157 -4.61959
ltoes -19.6683
398
root 0.651554 17.4982 45.2809 -0.961005 1.02581 2.8921
lowerback 9.43297 -2.05343 -4.64904
upperback 0.556381 -3.14928 1.59837
thorax -4.36672 -1.45513 4.69221
lowerneck -15.3459 -2.27418 -3.54335
upperneck 21.259 -2.48577 0.872061
head 9.28493 -1.3557 0.580445
rclavicle 2.26118e-014 -1.11319e-014
rhumerus -37.8868 -26.1346 -72.3432
rradius 20.5209
rwrist 9.9767
rhand -18.5088 24.8377
rfingers 7.12502
rthumb 7.77929 -4.99916
lclavicle 2.26118e-014 -1.11319e-014
lhumerus -18.4591 -5.16788 79.794
lradius 35.2394
lwrist 9.438
lhand -31.2854 19.1636
lfingers 7.12502
lthumb -4.55876 49.0945
rfemur -31.3095 4.34163 17.5658
rtibia 25.8962
rfoot -5.32305 -9.05614
rtoes -6.3304
lfemur 17.7471 -4.30162 -27.3087
ltibia 15.1167
lfoot -14.9141 -5.84338
ltoes -13.8676
399
root 0.63434 17.5187 45.4936 -1.04988 1.0228 2.34377
lowerback 9.30054 -2.08075 -4.06421
upperback 0.763907 -3.10799 1.77038
thorax -4.10105 -1.45682 4.52321
lowerneck -16.2564 -2.42225 -3.66084
upperneck 21.619 -2.65395 0.987737
head 9.5879 -1.42819 0.60814
rclavicle 2.5345e-015 -1.74931e-014
rhumerus -37.9428 -26.995 -71.81
rradius 20.2566
rwrist 10.9334
rhand -18.1676 24.3733
rfingers 7.12502
rthumb 8.10862 -5.45109
lclavicle 2.5345e-015 -1.74931e-014
lhumerus -18.2316 -4.93627 79.9396
lradius 35.4198
lwrist 9.49486
lhand -31.5924 18.313
lfingers 7.12502
lthumb -4.85521 48.2374
rfemur -31.38 4.76453 18.0855
rtibia 27.0653
rfoot -4.18248 -9.04482
rtoes -4.02991
lfemur 17.9887 -4.88086 -26.9097
ltibia 15.9861
lfoot -13.9956 -6.1433
ltoes -14.1772
400
root 0.612885 17.5161 45.7016 -1.05264 0.917637 2.25817
lowerback 9.28728 -2.05507 -4.06141
upperback 0.689647 -3.07089 1.84033
thorax -4.17156 -1.43449 4.5927
lowerneck -15.9559 -2.25498 -3.41765
upperneck 21.5596 -2.39352 0.560493
head 9.49567 -1.33678 0.456916
rclavicle 2.36554e-014 -1.11319e-014
rhumerus -38.4064 -27.6439 -71.0481
rradius 19.7541
rwrist 11.8956
rhand -18.2167 24.2769
rfingers 7.12502
rthumb 8.0612 -5.54939
lclavicle 2.36554e-014 -1.11319e-014
lhumerus -18.3721 -4.73162 80.0671
lradius 35.4295
lwrist 9.54475
lhand -32.5835 16.7316
lfingers 7.12502
lthumb -5.81211 46.6318
rfemur -31.3702 5.2508 18.0988
rtibia 27.7743
rfoot -3.58148 -8.78954
rtoes -1.45478
lfemur 17.8908 -5.05521 -26.9094
ltibia 17.5434
lfoot -13.4979 -5.9822
ltoes -18.0394
401
root 0.59274 17.5169 45.9013 -1.11252 0.676126 1.98812
lowerback 9.49555 -1.99322 -3.79566
upperback 0.554166 -2.96603 1.9027
thorax -4.45116 -1.37595 4.51143
lowerneck -15.5728 -2.1267 -3.19347
upperneck 21.5217 -2.20835 0.227295
head 9.4003 -1.27094 0.332309
rclavicle -4.80065e-014 -4.77083e-015
rhumerus -38.902 -29.0044 -69.8544
rradius 18.7184
rwrist 13.4994
rhand -18.3326 24.7143
rfingers 7.12502
rthumb 7.94938 -5.11624
lclavicle -4.80065e-014 -4.77083e-015
lhumerus -18.6685 -4.4661 80.1633
lradius 35.5181
lwrist 9.45209
lhand -32.5573 17.3014
lfingers 7.12502
lthumb -5.78682 47.2024
rfemur -31.3135 5.51433 18.4766
rtibia 28.4251
rfoot -3.08993 -7.4426
rtoes -0.475793
lfemur 17.6791 -5.35479 -26.7558
ltibia 19.5567
lfoot -12.7053 -6.08708
ltoes -17.2417
402
root 0.57101 17.5295 46.0992 -1.26621 0.283711 0.963567
lowerback 9.74513 -1.90736 -2.76931
upperback 0.621312 -2.73301 2.1773
thorax -4.57859 -1.27618 4.20121
lowerneck -15.9075 -2.12929 -3.28317
upperneck 21.7604 -2.17006 0.205497
head 9.54687 -1.26378 0.340318
rclavicle 5.29761e-014 -1.03368e-014
rhumerus -39.0785 -30.2866 -68.9151
rradius 17.9451
rwrist 14.713
rhand -18.5627 24.6739
rfingers 7.12502
rthumb 7.72721 -5.16493
lclavicle 5.29761e-014 -1.03368e-014
lhumerus -18.7371 -4.02967 80.2791
lradius 35.6503
lwrist 9.21161
lhand -32.0029 19.1245
lfingers 7.12502
lthumb -5.2515 49.0394
rfemur -31.2286 5.84513 19.7591
rtibia 29.2768
rfoot -2.6468 -5.78225
rtoes 1.89075
lfemur 17.4536 -5.58421 -25.7532
ltibia 21.5345
lfoot -11.6108 -6.82445
ltoes -15.1224
403
root 0.544798 17.5354 46.3129 -1.3855 -0.0161569 0.318392
lowerback 9.59344 -1.86726 -2.28369
upperback 0.753192 -2.61367 2.41658
thorax -4.37705 -1.23145 4.15098
lowerneck -15.923 -2.13846 -3.42763
upperneck 21.6412 -2.15634 0.257841
head 9.5104 -1.26247 0.384512
rclavicle 7.25564e-015 1.35174e-014
rhumerus -39.2581 -30.5795 -68.5315
rradius 17.7644
rwrist 15.1205
rhand -18.6022 24.2831
rfingers 7.12502
rthumb 7.68907 -5.55707
lclavicle 7.25564e-015 1.35174e-014
lhumerus -18.9119 -3.39249 80.3868
lradius 35.6797
lwrist 8.80272
lhand -32.008 18.9422
lfingers 7.12502
lthumb -5.25642 48.857
rfemur -31.0544 5.82967 20.7489
rtibia 30.3085
rfoot -2.27852 -4.69185
rtoes 5.61704
lfemur 17.1531 -5.63328 -25.0736
ltibia 23.4636
lfoot -10.4511 -7.57729
ltoes -17.5894
404
root 0.535345 17.5244 46.5336 -1.5602 -0.100941 0.416632
lowerback 9.56723 -1.9332 -2.39175
upperback 0.46687 -2.70963 2.46151
thorax -4.64663 -1.26622 4.27985
lowerneck -15.0064 -2.19733 -3.86379
upperneck 21.6037 -2.24202 0.564834
head 9.33828 -1.30676 0.560925
rclavicle 3.46879e-014 -3.18055e-015
rhumerus -40.3605 -30.8554 -67.3308
rradius 17.3901
rwrist 16.2803
rhand -18.4866 24.2751
rfingers 7.12502
rthumb 7.80068 -5.56095
lclavicle 3.46879e-014 -3.18055e-015
lhumerus -19.9905 -2.64958 80.5929
lradius 35.618
lwrist 8.68045
lhand -32.3491 16.7809
lfingers 7.12502
lthumb -5.58582 46.6873
rfemur -30.7173 5.07989 21.0305
rtibia 31.3702
rfoot -2.10753 -4.04604
rtoes 6.92938
lfemur 16.8431 -5.59267 -25.2102
ltibia 25.5898
lfoot -9.54697 -8.1676
ltoes -24.6463
405
root 0.545328 17.5148 46.7352 -1.74433 -0.00730906 0.543653
lowerback 10.287 -2.07783 -2.23246
upperback 0.392462 -2.89448 2.41409
thorax -5.12154 -1.34861 4.20436
lowerneck -16.0637 -2.0096 -3.54165
upperneck 22.4207 -1.90232 0.0945985
head 9.80742 -1.18021 0.375658
rclavicle -2.34069e-014 -1.59028e-015
rhumerus -40.4775 -31.9156 -66.3624
rradius 16.6698
rwrist 18.0062
rhand -17.9975 24.3676
rfingers 7.12502
rthumb 8.27277 -5.4504
lclavicle -2.34069e-014 -1.59028e-015
lhumerus -20.3048 -2.03374 80.6945
lradius 35.5082
lwrist 9.02358
lhand -32.6587 15.3964
lfingers 7.12502
lthumb -5.88467 45.2947
rfemur -30.4143 4.16432 21.1536
rtibia 32.613
rfoot -2.4221 -3.77197
rtoes 6.60132
lfemur 16.4159 -5.27983 -25.3121
ltibia 27.6895
lfoot -9.04728 -8.9846
ltoes -33.1796
406
root 0.503901 17.5178 46.947 -1.76889 -0.532984 -0.131346
lowerback 9.5967 -1.92874 -1.90503
upperback 0.485814 -2.64046 2.68338
thorax -4.66093 -1.24019 4.22982
lowerneck -15.0338 -1.91896 -3.56493
upperneck 21.9877 -1.79117 -0.00643656
head 9.45876 -1.13983 0.369372
rclavicle 4.47266e-015 -9.54166e-015
rhumerus -40.9656 -33.1628 -65.174
rradius 16.1719
rwrist 19.6106
rhand -17.693 24.4857
rfingers 7.12502
rthumb 8.56659 -5.32054
lclavicle 4.47266e-015 -9.54166e-015
lhumerus -20.8465 -1.81706 80.9259
lradius 35.5286
lwrist 9.23366
lhand -32.8933 15.6264
lfingers 7.12502
lthumb -6.11122 45.5182
rfemur -30.2296 4.81246 22.1615
rtibia 33.6034
rfoot -2.80112 -4.21013
rtoes 6.46019
lfemur 15.4934 -4.45816 -24.196
ltibia 30.0202
lfoot -8.13209 -10.3856
ltoes -36.0369
407
root 0.487762 17.5356 47.1545 -1.80138 -0.345682 0.0719235
lowerback 9.0917 -2.02221 -2.107
upperback 0.844282 -2.78859 2.62077
thorax -3.98485 -1.33055 4.25834
lowerneck -15.4296 -1.93087 -3.60662
upperneck 21.8031 -1.80184 0.0882721
head 9.46944 -1.13492 0.404894
rclavicle -6.31141e-015 -3.18055e-015
rhumerus -40.9365 -34.8107 -64.4703
rradius 16.2161
rwrist 21.3929
rhand -17.61 24.293
rfingers 7.12502
rthumb 8.6467 -5.50993
lclavicle -6.31141e-015 -3.18055e-015
lhumerus -20.7123 -1.49141 80.9871
lradius 35.6743
lwrist 9.10255
lhand -32.5417 17.6978
lfingers 7.12502
lthumb -5.77177 47.5991
rfemur -29.8233 4.30515 22.1352
rtibia 34.299
rfoot -3.30087 -3.66993
rtoes 7.66881
lfemur 14.3834 -4.58773 -24.2079
ltibia 32.5184
lfoot -4.95001 -12.2452
ltoes -33.3277
408
root 0.455012 17.5876 47.3713 -2.0778 -0.278329 -0.0153382
lowerback 9.40569 -1.93086 -2.01082
upperback 0.429659 -2.65713 2.59836
thorax -4.61057 -1.24748 4.19478
lowerneck -14.324 -2.23013 -4.18591
upperneck 21.8243 -2.25305 0.608582
head 9.29412 -1.33833 0.634133
rclavicle 4.25399e-014 -3.18055e-015
rhumerus -41.9334 -34.0913 -64.025
rradius 16.0329
rwrist 20.5334
rhand -17.8831 23.746
rfingers 7.12502
rthumb 8.38316 -6.06767
lclavicle 4.25399e-014 -3.18055e-015
lhumerus -22.0114 -1.7668 81.2759
lradius 35.8303
lwrist 8.78699
lhand -31.9112 19.5395
lfingers 7.12502
lthumb -5.16299 49.4566
rfemur -29.0047 4.22873 22.4762
rtibia 34.7978
rfoot -3.8408 -3.40799
rtoes 8.17174
lfemur 13.184 -4.48112 -23.7466
ltibia 35.0174
lfoot 0.332827 -13.9692
ltoes -25.4753
